<mxfile host="app.diagrams.net" modified="2021-05-19T01:08:28.101Z" agent="5.0 (Windows NT 10.0; Win64; x64) AppleWebKit/537.36 (KHTML, like Gecko) Chrome/90.0.4430.212 Safari/537.36 Edg/90.0.818.62" etag="nJnQTQrbYPSSLlMpzg6l" version="14.6.0" type="github">
  <diagram id="ceVoSjVOeJK-hoTPvmaE" name="第 1 页">
    <mxGraphModel dx="1422" dy="794" grid="1" gridSize="10" guides="1" tooltips="1" connect="1" arrows="1" fold="1" page="1" pageScale="1" pageWidth="10000" pageHeight="1169" math="0" shadow="0">
      <root>
        <mxCell id="0" />
        <mxCell id="1" parent="0" />
        <mxCell id="pcj1sW6-fQmG6R9GkN-e-7" value="" style="edgeStyle=orthogonalEdgeStyle;rounded=0;orthogonalLoop=1;jettySize=auto;html=1;" edge="1" parent="1" source="pcj1sW6-fQmG6R9GkN-e-1" target="pcj1sW6-fQmG6R9GkN-e-2">
          <mxGeometry relative="1" as="geometry" />
        </mxCell>
        <mxCell id="pcj1sW6-fQmG6R9GkN-e-1" value="进入营销管理" style="rounded=1;whiteSpace=wrap;html=1;" vertex="1" parent="1">
          <mxGeometry x="400" y="90" width="120" height="60" as="geometry" />
        </mxCell>
        <mxCell id="pcj1sW6-fQmG6R9GkN-e-8" value="" style="edgeStyle=orthogonalEdgeStyle;rounded=0;orthogonalLoop=1;jettySize=auto;html=1;" edge="1" parent="1" source="pcj1sW6-fQmG6R9GkN-e-2" target="pcj1sW6-fQmG6R9GkN-e-3">
          <mxGeometry relative="1" as="geometry" />
        </mxCell>
        <mxCell id="pcj1sW6-fQmG6R9GkN-e-2" value="创建营销表单" style="rounded=0;whiteSpace=wrap;html=1;" vertex="1" parent="1">
          <mxGeometry x="400" y="190" width="120" height="60" as="geometry" />
        </mxCell>
        <mxCell id="pcj1sW6-fQmG6R9GkN-e-9" value="" style="edgeStyle=orthogonalEdgeStyle;rounded=0;orthogonalLoop=1;jettySize=auto;html=1;" edge="1" parent="1" source="pcj1sW6-fQmG6R9GkN-e-3" target="pcj1sW6-fQmG6R9GkN-e-4">
          <mxGeometry relative="1" as="geometry" />
        </mxCell>
        <mxCell id="pcj1sW6-fQmG6R9GkN-e-3" value="添加前置页面" style="rounded=0;whiteSpace=wrap;html=1;" vertex="1" parent="1">
          <mxGeometry x="400" y="290" width="120" height="60" as="geometry" />
        </mxCell>
        <mxCell id="pcj1sW6-fQmG6R9GkN-e-10" value="" style="edgeStyle=orthogonalEdgeStyle;rounded=0;orthogonalLoop=1;jettySize=auto;html=1;" edge="1" parent="1" source="pcj1sW6-fQmG6R9GkN-e-4" target="pcj1sW6-fQmG6R9GkN-e-5">
          <mxGeometry relative="1" as="geometry" />
        </mxCell>
        <mxCell id="pcj1sW6-fQmG6R9GkN-e-4" value="设置奖励金额" style="rounded=0;whiteSpace=wrap;html=1;" vertex="1" parent="1">
          <mxGeometry x="400" y="390" width="120" height="60" as="geometry" />
        </mxCell>
        <mxCell id="pcj1sW6-fQmG6R9GkN-e-11" value="" style="edgeStyle=orthogonalEdgeStyle;rounded=0;orthogonalLoop=1;jettySize=auto;html=1;" edge="1" parent="1" source="pcj1sW6-fQmG6R9GkN-e-5" target="pcj1sW6-fQmG6R9GkN-e-6">
          <mxGeometry relative="1" as="geometry" />
        </mxCell>
        <mxCell id="pcj1sW6-fQmG6R9GkN-e-5" value="充值红包" style="rounded=0;whiteSpace=wrap;html=1;" vertex="1" parent="1">
          <mxGeometry x="400" y="494.5" width="120" height="60" as="geometry" />
        </mxCell>
        <mxCell id="pcj1sW6-fQmG6R9GkN-e-6" value="发布" style="rounded=0;whiteSpace=wrap;html=1;" vertex="1" parent="1">
          <mxGeometry x="400" y="590" width="120" height="60" as="geometry" />
        </mxCell>
        <mxCell id="pcj1sW6-fQmG6R9GkN-e-12" value="&lt;h1 style=&quot;font-size: 11px&quot;&gt;&lt;font style=&quot;font-size: 11px&quot;&gt;打开页面奖励 XX元&lt;/font&gt;&lt;/h1&gt;&lt;div style=&quot;font-size: 11px&quot;&gt;&lt;font style=&quot;font-size: 11px&quot;&gt;&lt;b&gt;填写表单奖励XX元&lt;/b&gt;&lt;/font&gt;&lt;/div&gt;" style="text;html=1;strokeColor=none;fillColor=none;spacing=5;spacingTop=-20;whiteSpace=wrap;overflow=hidden;rounded=0;fontColor=#FF3333;" vertex="1" parent="1">
          <mxGeometry x="540" y="410" width="190" height="40" as="geometry" />
        </mxCell>
        <mxCell id="pcj1sW6-fQmG6R9GkN-e-14" value="&lt;h1 style=&quot;font-size: 11px&quot;&gt;添加图文页面&amp;nbsp; 、大转盘活动&lt;/h1&gt;&lt;div&gt;可只添加前置页面，创建空白表单&lt;/div&gt;" style="text;html=1;strokeColor=none;fillColor=none;spacing=5;spacingTop=-20;whiteSpace=wrap;overflow=hidden;rounded=0;fontColor=#FF3333;" vertex="1" parent="1">
          <mxGeometry x="540" y="310" width="190" height="40" as="geometry" />
        </mxCell>
      </root>
    </mxGraphModel>
  </diagram>
</mxfile>
